<?xml version="1.0" encoding="UTF-8"?>
<!DOCTYPE svg PUBLIC "-//W3C//DTD SVG 1.1//EN" "http://www.w3.org/Graphics/SVG/1.1/DTD/svg11.dtd">
<svg xmlns="http://www.w3.org/2000/svg" version="1.1" width="512px" height="512px" style="shape-rendering:geometricPrecision; text-rendering:geometricPrecision; image-rendering:optimizeQuality; fill-rule:evenodd; clip-rule:evenodd" xmlns:xlink="http://www.w3.org/1999/xlink">
<g><path style="opacity:0.983" fill="#998cff" d="M 177.5,41.5 C 175.031,42.3171 172.365,42.8171 169.5,43C 127.333,85.1667 85.1667,127.333 43,169.5C 42.8171,172.365 42.3171,175.031 41.5,177.5C 39.2923,153.178 42.1257,129.511 50,106.5C 68.0614,68.2029 98.2281,46.7029 140.5,42C 152.829,41.5001 165.162,41.3335 177.5,41.5 Z"/></g>
<g><path style="opacity:0.991" fill="#9287fe" d="M 177.5,41.5 C 189.167,41.5 200.833,41.5 212.5,41.5C 210.369,42.3138 208.036,42.8138 205.5,43C 151.333,97.1667 97.1667,151.333 43,205.5C 42.8138,208.036 42.3138,210.369 41.5,212.5C 41.5,200.833 41.5,189.167 41.5,177.5C 42.3171,175.031 42.8171,172.365 43,169.5C 85.1667,127.333 127.333,85.1667 169.5,43C 172.365,42.8171 175.031,42.3171 177.5,41.5 Z"/></g>
<g><path style="opacity:0.994" fill="#8b82fe" d="M 212.5,41.5 C 223.833,41.5 235.167,41.5 246.5,41.5C 244.708,42.3091 242.708,42.8091 240.5,43C 174.667,108.833 108.833,174.667 43,240.5C 42.8091,242.708 42.3091,244.708 41.5,246.5C 41.5,235.167 41.5,223.833 41.5,212.5C 42.3138,210.369 42.8138,208.036 43,205.5C 97.1667,151.333 151.333,97.1667 205.5,43C 208.036,42.8138 210.369,42.3138 212.5,41.5 Z"/></g>
<g><path style="opacity:0.994" fill="#857efd" d="M 246.5,41.5 C 258.5,41.5 270.5,41.5 282.5,41.5C 202.5,122.167 122.167,202.5 41.5,282.5C 41.5,270.5 41.5,258.5 41.5,246.5C 42.3091,244.708 42.8091,242.708 43,240.5C 108.833,174.667 174.667,108.833 240.5,43C 242.708,42.8091 244.708,42.3091 246.5,41.5 Z"/></g>
<g><path style="opacity:0.995" fill="#7f7afc" d="M 282.5,41.5 C 293.833,41.5 305.167,41.5 316.5,41.5C 225.167,133.5 133.5,225.167 41.5,316.5C 41.5,305.167 41.5,293.833 41.5,282.5C 122.167,202.5 202.5,122.167 282.5,41.5 Z"/></g>
<g><path style="opacity:0.995" fill="#7976fc" d="M 316.5,41.5 C 330.167,41.5 343.833,41.5 357.5,41.5C 305.167,94.1667 252.833,146.833 200.5,199.5C 194.078,195.344 187.745,195.51 181.5,200C 166.333,215.167 151.167,230.333 136,245.5C 131.51,251.745 131.344,258.078 135.5,264.5C 104.167,295.5 72.8333,326.5 41.5,357.5C 41.5,343.833 41.5,330.167 41.5,316.5C 133.5,225.167 225.167,133.5 316.5,41.5 Z"/></g>
<g><path style="opacity:0.998" fill="#7372fc" d="M 357.5,41.5 C 370.685,41.1068 383.352,43.1068 395.5,47.5C 356.167,86.1667 317.167,125.167 278.5,164.5C 270.862,164.399 265.362,167.732 262,174.5C 260.897,177.98 259.731,181.313 258.5,184.5C 231.833,210.5 205.5,236.833 179.5,263.5C 177.521,261.521 175.521,259.521 173.5,257.5C 172.167,256.167 172.167,254.833 173.5,253.5C 183.072,244.43 192.572,235.096 202,225.5C 209.69,216.243 209.19,207.577 200.5,199.5C 252.833,146.833 305.167,94.1667 357.5,41.5 Z"/></g>
<g><path style="opacity:0.997" fill="#6d6efc" d="M 395.5,47.5 C 404.428,49.7972 412.762,53.4638 420.5,58.5C 420.414,59.4959 420.748,60.3292 421.5,61C 378.25,104.751 334.583,147.918 290.5,190.5C 296.173,177.185 292.173,168.519 278.5,164.5C 317.167,125.167 356.167,86.1667 395.5,47.5 Z"/></g>
<g><path style="opacity:0.999" fill="#666afb" d="M 420.5,58.5 C 430.746,64.7448 439.413,72.7448 446.5,82.5C 446.631,83.2389 446.464,83.9056 446,84.5C 407.299,123.035 368.799,161.701 330.5,200.5C 320.356,193.972 311.856,195.638 305,205.5C 302.447,212.043 303.281,218.043 307.5,223.5C 296.035,234.465 284.702,245.631 273.5,257C 272.906,257.464 272.239,257.631 271.5,257.5C 277.678,235.122 284.011,212.789 290.5,190.5C 334.583,147.918 378.25,104.751 421.5,61C 420.748,60.3292 420.414,59.4959 420.5,58.5 Z"/></g>
<g><path style="opacity:0.998" fill="#6065fb" d="M 446.5,82.5 C 455.122,93.077 461.122,105.077 464.5,118.5C 428.167,154.167 392.167,190.167 356.5,226.5C 347.5,218.167 338.833,209.5 330.5,200.5C 368.799,161.701 407.299,123.035 446,84.5C 446.464,83.9056 446.631,83.2389 446.5,82.5 Z"/></g>
<g><path style="opacity:0.998" fill="#5a61fa" d="M 464.5,118.5 C 467.064,125.484 468.564,132.817 469,140.5C 469.5,154.163 469.667,167.829 469.5,181.5C 468.674,177.018 468.174,172.351 468,167.5C 438.299,197.368 408.465,227.035 378.5,256.5C 378.498,252.489 377.332,248.822 375,245.5C 368.631,239.298 362.464,232.965 356.5,226.5C 392.167,190.167 428.167,154.167 464.5,118.5 Z"/></g>
<g><path style="opacity:1" fill="#565ef9" d="M 469.5,181.5 C 469.5,192.833 469.5,204.167 469.5,215.5C 469.167,215.5 468.833,215.5 468.5,215.5C 468.666,209.158 468.5,202.825 468,196.5C 377.5,287 287,377.5 196.5,468C 202.825,468.5 209.158,468.666 215.5,468.5C 215.5,468.833 215.5,469.167 215.5,469.5C 204.167,469.5 192.833,469.5 181.5,469.5C 177.018,468.674 172.351,468.174 167.5,468C 218.701,416.965 269.701,365.799 320.5,314.5C 323.673,313.83 326.673,312.664 329.5,311C 344.667,295.833 359.833,280.667 375,265.5C 376.664,262.673 377.83,259.673 378.5,256.5C 408.465,227.035 438.299,197.368 468,167.5C 468.174,172.351 468.674,177.018 469.5,181.5 Z"/></g>
<g><path style="opacity:1" fill="#6d6efc" d="M 258.5,184.5 C 253.739,203.436 248.405,222.103 242.5,240.5C 228.167,254.5 213.833,268.5 199.5,282.5C 192.781,276.111 186.114,269.778 179.5,263.5C 205.5,236.833 231.833,210.5 258.5,184.5 Z"/></g>
<g><path style="opacity:1" fill="#535cfa" d="M 468.5,215.5 C 468.665,219.182 468.499,222.848 468,226.5C 387.5,307 307,387.5 226.5,468C 222.848,468.499 219.182,468.665 215.5,468.5C 209.158,468.666 202.825,468.5 196.5,468C 287,377.5 377.5,287 468,196.5C 468.5,202.825 468.666,209.158 468.5,215.5 Z"/></g>
<g><path style="opacity:1" fill="#efeffe" d="M 200.5,199.5 C 209.19,207.577 209.69,216.243 202,225.5C 192.572,235.096 183.072,244.43 173.5,253.5C 172.167,254.833 172.167,256.167 173.5,257.5C 175.521,259.521 177.521,261.521 179.5,263.5C 186.114,269.778 192.781,276.111 199.5,282.5C 202.17,286.012 204.67,289.678 207,293.5C 208.658,305.857 203.325,312.857 191,314.5C 185.205,313.52 180.371,310.853 176.5,306.5C 170.167,299.5 163.5,292.833 156.5,286.5C 149.5,279.167 142.5,271.833 135.5,264.5C 131.344,258.078 131.51,251.745 136,245.5C 151.167,230.333 166.333,215.167 181.5,200C 187.745,195.51 194.078,195.344 200.5,199.5 Z"/></g>
<g><path style="opacity:1" fill="#edeefe" d="M 330.5,200.5 C 338.833,209.5 347.5,218.167 356.5,226.5C 362.464,232.965 368.631,239.298 375,245.5C 377.332,248.822 378.498,252.489 378.5,256.5C 377.83,259.673 376.664,262.673 375,265.5C 359.833,280.667 344.667,295.833 329.5,311C 326.673,312.664 323.673,313.83 320.5,314.5C 307.839,313.193 302.339,306.193 304,293.5C 314.935,280.562 326.602,268.229 339,256.5C 338.228,253.536 336.395,251.202 333.5,249.5C 325.167,240.5 316.5,231.833 307.5,223.5C 303.281,218.043 302.447,212.043 305,205.5C 311.856,195.638 320.356,193.972 330.5,200.5 Z"/></g>
<g><path style="opacity:1" fill="#b1b3fd" d="M 278.5,164.5 C 292.173,168.519 296.173,177.185 290.5,190.5C 284.011,212.789 277.678,235.122 271.5,257.5C 264.348,281.772 257.348,306.105 250.5,330.5C 248.282,341.384 241.615,346.718 230.5,346.5C 220.648,342.468 216.815,335.135 219,324.5C 220.48,319.898 221.646,315.231 222.5,310.5C 229.739,287.436 236.405,264.103 242.5,240.5C 248.405,222.103 253.739,203.436 258.5,184.5C 259.731,181.313 260.897,177.98 262,174.5C 265.362,167.732 270.862,164.399 278.5,164.5 Z"/></g>
<g><path style="opacity:0.995" fill="#4e59f9" d="M 468.5,215.5 C 468.833,215.5 469.167,215.5 469.5,215.5C 469.5,231.5 469.5,247.5 469.5,263.5C 468.671,271.323 468.171,279.323 468,287.5C 407.833,347.667 347.667,407.833 287.5,468C 279.323,468.171 271.323,468.671 263.5,469.5C 247.5,469.5 231.5,469.5 215.5,469.5C 215.5,469.167 215.5,468.833 215.5,468.5C 219.182,468.665 222.848,468.499 226.5,468C 307,387.5 387.5,307 468,226.5C 468.499,222.848 468.665,219.182 468.5,215.5 Z"/></g>
<g><path style="opacity:1" fill="#6066fb" d="M 307.5,223.5 C 316.5,231.833 325.167,240.5 333.5,249.5C 306.368,276.132 279.368,302.965 252.5,330C 251.906,330.464 251.239,330.631 250.5,330.5C 257.348,306.105 264.348,281.772 271.5,257.5C 272.239,257.631 272.906,257.464 273.5,257C 284.702,245.631 296.035,234.465 307.5,223.5 Z"/></g>
<g><path style="opacity:0.999" fill="#5b62fa" d="M 333.5,249.5 C 336.395,251.202 338.228,253.536 339,256.5C 326.602,268.229 314.935,280.562 304,293.5C 302.339,306.193 307.839,313.193 320.5,314.5C 269.701,365.799 218.701,416.965 167.5,468C 172.351,468.174 177.018,468.674 181.5,469.5C 167.829,469.667 154.163,469.5 140.5,469C 131.536,468.374 122.869,466.541 114.5,463.5C 152.45,423.883 191.117,384.883 230.5,346.5C 241.615,346.718 248.282,341.384 250.5,330.5C 251.239,330.631 251.906,330.464 252.5,330C 279.368,302.965 306.368,276.132 333.5,249.5 Z"/></g>
<g><path style="opacity:0.996" fill="#7372fc" d="M 135.5,264.5 C 142.5,271.833 149.5,279.167 156.5,286.5C 119.833,322.5 83.5,358.833 47.5,395.5C 43.1068,383.352 41.1068,370.685 41.5,357.5C 72.8333,326.5 104.167,295.5 135.5,264.5 Z"/></g>
<g><path style="opacity:0.999" fill="#666afb" d="M 242.5,240.5 C 236.405,264.103 229.739,287.436 222.5,310.5C 222.631,309.761 222.464,309.094 222,308.5C 175.582,354.417 129.749,400.75 84.5,447.5C 74.4523,441.119 66.4523,432.786 60.5,422.5C 98.8333,383.5 137.5,344.833 176.5,306.5C 180.371,310.853 185.205,313.52 191,314.5C 203.325,312.857 208.658,305.857 207,293.5C 204.67,289.678 202.17,286.012 199.5,282.5C 213.833,268.5 228.167,254.5 242.5,240.5 Z"/></g>
<g><path style="opacity:0.998" fill="#6d6efc" d="M 156.5,286.5 C 163.5,292.833 170.167,299.5 176.5,306.5C 137.5,344.833 98.8333,383.5 60.5,422.5C 54.3218,414.474 49.9885,405.474 47.5,395.5C 83.5,358.833 119.833,322.5 156.5,286.5 Z"/></g>
<g><path style="opacity:0.998" fill="#6065fb" d="M 222.5,310.5 C 221.646,315.231 220.48,319.898 219,324.5C 216.815,335.135 220.648,342.468 230.5,346.5C 191.117,384.883 152.45,423.883 114.5,463.5C 103.284,460.229 93.2845,454.895 84.5,447.5C 129.749,400.75 175.582,354.417 222,308.5C 222.464,309.094 222.631,309.761 222.5,310.5 Z"/></g>
<g><path style="opacity:0.991" fill="#4955f9" d="M 469.5,263.5 C 469.944,302.192 469.444,340.859 468,379.5C 457.833,428.333 428.333,457.833 379.5,468C 340.859,469.444 302.192,469.944 263.5,469.5C 271.323,468.671 279.323,468.171 287.5,468C 347.667,407.833 407.833,347.667 468,287.5C 468.171,279.323 468.671,271.323 469.5,263.5 Z"/></g>
</svg>
